700.ufo
<glyph name="quotedbl" format="1">
  <advance width="852"/>
  <unicode hex="0022"/>
  <outline>
    <contour>
      <point x="188" y="903" type="line"/>
      <point x="322" y="903" type="line"/>
      <point x="371" y="1472" type="line"/>
      <point x="144" y="1472" type="line"/>
    </contour>
    <contour>
      <point x="520" y="903" type="line"/>
      <point x="653" y="903" type="line"/>
      <point x="703" y="1472" type="line"/>
      <point x="475" y="1472" type="line"/>
    </contour>
  </outline>
</glyph>
<glyph name="ampersand" format="1">
  <advance width="1420"/>
  <unicode hex="0026"/>
  <outline>
    <contour>
      <point x="1134" y="-40" type="line"/>
      <point x="1288" y="92" type="line"/>
      <point x="670" y="788" type="line"/>
      <point x="838" y="878"/>
      <point x="997" y="1016"/>
      <point x="997" y="1197" type="curve" smooth="yes"/>
      <point x="997" y="1414"/>
      <point x="812" y="1509"/>
      <point x="621" y="1509" type="curve" smooth="yes"/>
      <point x="413" y="1509"/>
      <point x="231" y="1387"/>
      <point x="231" y="1171" type="curve" smooth="yes"/>
      <point x="231" y="1041"/>
      <point x="293" y="922"/>
      <point x="381" y="822" type="curve"/>
      <point x="219" y="729"/>
      <point x="95" y="618"/>
      <point x="95" y="401" type="curve" smooth="yes"/>
      <point x="95" y="119"/>
      <point x="312" y="-18"/>
      <point x="601" y="-18" type="curve" smooth="yes"/>
      <point x="966" y="-18"/>
      <point x="1204" y="265"/>
      <point x="1325" y="525" type="curve"/>
      <point x="1172" y="627" type="line"/>
      <point x="1049" y="365"/>
      <point x="855" y="160"/>
      <point x="610" y="160" type="curve" smooth="yes"/>
      <point x="441" y="160"/>
      <point x="313" y="240"/>
      <point x="313" y="410" type="curve" smooth="yes"/>
      <point x="313" y="536"/>
      <point x="384" y="627"/>
      <point x="489" y="689" type="curve"/>
    </contour>
    <contour>
      <point x="565" y="915" type="curve"/>
      <point x="481" y="1001"/>
      <point x="439" y="1096"/>
      <point x="439" y="1188" type="curve" smooth="yes"/>
      <point x="439" y="1294"/>
      <point x="521" y="1348"/>
      <point x="626" y="1348" type="curve" smooth="yes"/>
      <point x="729" y="1348"/>
      <point x="793" y="1296"/>
      <point x="793" y="1192" type="curve" smooth="yes"/>
      <point x="793" y="1073"/>
      <point x="680" y="975"/>
    </contour>
  </outline>
</glyph>
<glyph name="slash" format="1">
  <advance width="994"/>
  <unicode hex="002F"/>
  <outline>
    <contour>
      <point x="95" y="-163" type="line"/>
      <point x="276" y="-163" type="line"/>
      <point x="910" y="1560" type="line"/>
      <point x="725" y="1560" type="line"/>
    </contour>
  </outline>
</glyph>
<glyph name="one" format="1">
  <advance width="1192"/>
  <unicode hex="0031"/>
  <outline>
    <contour>
      <point x="121" y="0" type="line"/>
      <point x="1096" y="0" type="line"/>
      <point x="1096" y="184" type="line"/>
      <point x="675" y="184" type="line"/>
      <point x="759" y="96" type="line"/>
      <point x="759" y="1456" type="line"/>
      <point x="546" y="1456" type="line"/>
      <point x="465" y="1397"/>
      <point x="254" y="1333"/>
      <point x="146" y="1306" type="curve"/>
      <point x="146" y="1121" type="line"/>
      <point x="274" y="1140"/>
      <point x="497" y="1210"/>
      <point x="564" y="1270" type="curve"/>
      <point x="519" y="1302" type="line"/>
      <point x="519" y="96" type="line"/>
      <point x="603" y="184" type="line"/>
      <point x="121" y="184" type="line"/>
    </contour>
  </outline>
</glyph>
<glyph name="three" format="1">
  <advance width="1192"/>
  <unicode hex="0033"/>
  <outline>
    <contour>
      <point x="571" y="-18" type="curve" smooth="yes"/>
      <point x="851" y="-18"/>
      <point x="1070" y="130"/>
      <point x="1070" y="408" type="curve" smooth="yes"/>
      <point x="1070" y="591"/>
      <point x="966" y="738"/>
      <point x="663" y="776" type="curve"/>
      <point x="644" y="742" type="line"/>
      <point x="925" y="773"/>
      <point x="1027" y="912"/>
      <point x="1027" y="1094" type="curve" smooth="yes"/>
      <point x="1027" y="1337"/>
      <point x="825" y="1476"/>
      <point x="565" y="1476" type="curve" smooth="yes"/>
      <point x="340" y="1476"/>
      <point x="173" y="1369"/>
      <point x="115" y="1209" type="curve"/>
      <point x="270" y="1114" type="line"/>
      <point x="287" y="1114" type="line"/>
      <point x="348" y="1222"/>
      <point x="437" y="1272"/>
      <point x="556" y="1272" type="curve" smooth="yes"/>
      <point x="715" y="1272"/>
      <point x="799" y="1197"/>
      <point x="799" y="1077" type="curve" smooth="yes"/>
      <point x="799" y="886"/>
      <point x="626" y="852"/>
      <point x="422" y="837" type="curve" smooth="yes"/>
      <point x="356" y="833" type="line"/>
      <point x="379" y="658" type="line"/>
      <point x="421" y="658" type="line" smooth="yes"/>
      <point x="661" y="658"/>
      <point x="828" y="606"/>
      <point x="828" y="418" type="curve" smooth="yes"/>
      <point x="828" y="269"/>
      <point x="726" y="184"/>
      <point x="559" y="184" type="curve" smooth="yes"/>
      <point x="424" y="184"/>
      <point x="323" y="250"/>
      <point x="256" y="343" type="curve"/>
      <point x="240" y="343" type="line"/>
      <point x="108" y="204" type="line"/>
      <point x="178" y="79"/>
      <point x="335" y="-18"/>
    </contour>
  </outline>
</glyph>
<glyph name="six" format="1">
  <advance width="1192"/>
  <unicode hex="0036"/>
  <outline>
    <contour>
      <point x="600" y="-19" type="curve" smooth="yes"/>
      <point x="896" y="-19"/>
      <point x="1108" y="176"/>
      <point x="1105" y="453" type="curve" smooth="yes"/>
      <point x="1102" y="754"/>
      <point x="918" y="927"/>
      <point x="708" y="927" type="curve" smooth="yes"/>
      <point x="555" y="927"/>
      <point x="489" y="858"/>
      <point x="400" y="791" type="curve"/>
      <point x="418" y="771" type="line"/>
      <point x="610" y="1020" type="line" smooth="yes"/>
      <point x="897" y="1432" type="line"/>
      <point x="897" y="1456" type="line"/>
      <point x="639" y="1456" type="line"/>
      <point x="300" y="966" type="line" smooth="yes"/>
      <point x="184" y="799"/>
      <point x="92" y="663"/>
      <point x="92" y="457" type="curve" smooth="yes"/>
      <point x="92" y="184"/>
      <point x="291" y="-19"/>
    </contour>
    <contour>
      <point x="595" y="163" type="curve" smooth="yes"/>
      <point x="416" y="163"/>
      <point x="325" y="285"/>
      <point x="325" y="446" type="curve" smooth="yes"/>
      <point x="325" y="655"/>
      <point x="464" y="756"/>
      <point x="603" y="760" type="curve" smooth="yes"/>
      <point x="742" y="764"/>
      <point x="877" y="664"/>
      <point x="877" y="450" type="curve" smooth="yes"/>
      <point x="877" y="288"/>
      <point x="777" y="163"/>
    </contour>
  </outline>
</glyph>
<glyph name="seven" format="1">
  <advance width="1192"/>
  <unicode hex="0037"/>
  <outline>
    <contour>
      <point x="273" y="0" type="line"/>
      <point x="518" y="0" type="line"/>
      <point x="1089" y="1294" type="line"/>
      <point x="1076" y="1456" type="line"/>
      <point x="150" y="1456" type="line"/>
      <point x="164" y="1261" type="line"/>
      <point x="832" y="1261" type="line"/>
    </contour>
  </outline>
</glyph>
<glyph name="nine" format="1">
  <advance width="1192"/>
  <unicode hex="0039"/>
  <outline>
    <contour>
      <point x="289" y="0" type="line"/>
      <point x="545" y="0" type="line"/>
      <point x="545" y="0"/>
      <point x="900" y="478"/>
      <point x="916" y="499" type="curve" smooth="yes"/>
      <point x="1029" y="658"/>
      <point x="1122" y="796"/>
      <point x="1122" y="998" type="curve" smooth="yes"/>
      <point x="1122" y="1272"/>
      <point x="922" y="1480"/>
      <point x="613" y="1480" type="curve" smooth="yes"/>
      <point x="317" y="1480"/>
      <point x="94" y="1280"/>
      <point x="108" y="1001" type="curve" smooth="yes"/>
      <point x="122" y="718"/>
      <point x="327" y="564"/>
      <point x="534" y="564" type="curve" smooth="yes"/>
      <point x="720" y="564"/>
      <point x="842" y="670"/>
      <point x="912" y="778" type="curve"/>
      <point x="899" y="784" type="line"/>
      <point x="899" y="784"/>
      <point x="667" y="522"/>
      <point x="626" y="468" type="curve" smooth="yes"/>
      <point x="289" y="27" type="line"/>
    </contour>
    <contour>
      <point x="609" y="725" type="curve" smooth="yes"/>
      <point x="425" y="725"/>
      <point x="339" y="842"/>
      <point x="339" y="1013" type="curve" smooth="yes"/>
      <point x="339" y="1177"/>
      <point x="441" y="1293"/>
      <point x="623" y="1293" type="curve" smooth="yes"/>
      <point x="802" y="1293"/>
      <point x="893" y="1180"/>
      <point x="893" y="1018" type="curve" smooth="yes"/>
      <point x="893" y="820"/>
      <point x="776" y="725"/>
    </contour>
  </outline>
</glyph>
<glyph name="B" format="1">
  <advance width="1334"/>
  <unicode hex="0042"/>
  <outline>
    <contour>
      <point x="525" y="-1" type="curve" smooth="yes"/>
      <point x="1056" y="-1"/>
      <point x="1219" y="129"/>
      <point x="1219" y="430" type="curve" smooth="yes"/>
      <point x="1219" y="653"/>
      <point x="1069" y="767"/>
      <point x="837" y="801" type="curve"/>
      <point x="837" y="743" type="line"/>
      <point x="1088" y="797"/>
      <point x="1174" y="918"/>
      <point x="1174" y="1085" type="curve" smooth="yes"/>
      <point x="1174" y="1345"/>
      <point x="1021" y="1457"/>
      <point x="565" y="1457" type="curve" smooth="yes"/>
      <point x="448" y="1457"/>
      <point x="311" y="1450"/>
      <point x="152" y="1436" type="curve"/>
      <point x="152" y="15" type="line"/>
      <point x="293" y="4"/>
      <point x="417" y="-1"/>
    </contour>
    <contour>
      <point x="392" y="134" type="line"/>
      <point x="392" y="745" type="line"/>
      <point x="333" y="679" type="line"/>
      <point x="635" y="679" type="line" smooth="yes"/>
      <point x="871" y="679"/>
      <point x="981" y="621"/>
      <point x="981" y="440" type="curve" smooth="yes"/>
      <point x="981" y="273"/>
      <point x="903" y="185"/>
      <point x="559" y="185" type="curve" smooth="yes"/>
      <point x="493" y="185"/>
      <point x="419" y="189"/>
      <point x="333" y="195" type="curve"/>
    </contour>
    <contour>
      <point x="392" y="796" type="line"/>
      <point x="392" y="1322" type="line"/>
      <point x="333" y="1258" type="line"/>
      <point x="430" y="1266"/>
      <point x="513" y="1270"/>
      <point x="583" y="1270" type="curve" smooth="yes"/>
      <point x="844" y="1270"/>
      <point x="933" y="1211"/>
      <point x="933" y="1051" type="curve" smooth="yes"/>
      <point x="933" y="889"/>
      <point x="834" y="849"/>
      <point x="658" y="849" type="curve" smooth="yes"/>
      <point x="332" y="849" type="line"/>
    </contour>
    <contour>
      <point x="631" y="0" type="move" name="bot"/>
    </contour>
    <contour>
      <point x="641" y="1456" type="move" name="top"/>
    </contour>
  </outline>
</glyph>
<glyph name="G" format="1">
  <advance width="1448"/>
  <unicode hex="0047"/>
  <outline>
    <contour>
      <point x="786" y="-18" type="curve" smooth="yes"/>
      <point x="984" y="-18"/>
      <point x="1133" y="20"/>
      <point x="1287" y="85" type="curve"/>
      <point x="1287" y="798" type="line"/>
      <point x="750" y="798" type="line"/>
      <point x="741" y="615" type="line"/>
      <point x="1140" y="593" type="line"/>
      <point x="1067" y="662" type="line"/>
      <point x="1067" y="148" type="line"/>
      <point x="1149" y="251" type="line"/>
      <point x="1086" y="219"/>
      <point x="971" y="186"/>
      <point x="806" y="186" type="curve" smooth="yes"/>
      <point x="482" y="186"/>
      <point x="368" y="380"/>
      <point x="368" y="721" type="curve" smooth="yes"/>
      <point x="368" y="1079"/>
      <point x="519" y="1272"/>
      <point x="818" y="1272" type="curve" smooth="yes"/>
      <point x="981" y="1272"/>
      <point x="1084" y="1194"/>
      <point x="1144" y="1124" type="curve"/>
      <point x="1166" y="1124" type="line"/>
      <point x="1297" y="1256" type="line"/>
      <point x="1215" y="1378"/>
      <point x="1055" y="1476"/>
      <point x="804" y="1476" type="curve" smooth="yes"/>
      <point x="384" y="1476"/>
      <point x="114" y="1206"/>
      <point x="114" y="718" type="curve" smooth="yes"/>
      <point x="114" y="265"/>
      <point x="345" y="-18"/>
    </contour>
    <contour>
      <point x="784" y="0" type="move" name="bot"/>
    </contour>
    <contour>
      <point x="784" y="1456" type="move" name="top"/>
    </contour>
  </outline>
</glyph>
<glyph name="H" format="1">
  <advance width="1476"/>
  <unicode hex="0048"/>
  <outline>
    <contour>
      <point x="1055" y="1456" type="line"/>
      <point x="1055" y="772" type="line"/>
      <point x="1128" y="844" type="line"/>
      <point x="323" y="844" type="line"/>
      <point x="399" y="772" type="line"/>
      <point x="399" y="1456" type="line"/>
      <point x="159" y="1456" type="line"/>
      <point x="159" y="0" type="line"/>
      <point x="399" y="0" type="line"/>
      <point x="399" y="722" type="line"/>
      <point x="324" y="651" type="line"/>
      <point x="1134" y="651" type="line"/>
      <point x="1055" y="722" type="line"/>
      <point x="1055" y="0" type="line"/>
      <point x="1295" y="0" type="line"/>
      <point x="1295" y="1456" type="line"/>
    </contour>
    <contour>
      <point x="738" y="0" type="move" name="bot"/>
    </contour>
    <contour>
      <point x="738" y="1456" type="move" name="top"/>
    </contour>
  </outline>
</glyph>
<glyph name="I" format="1">
  <advance width="1050"/>
  <unicode hex="0049"/>
  <outline>
    <contour>
      <point x="190" y="1456" type="line"/>
      <point x="190" y="1303" type="line"/>
      <point x="465" y="1303" type="line"/>
      <point x="396" y="1360" type="line"/>
      <point x="396" y="90" type="line"/>
      <point x="466" y="153" type="line"/>
      <point x="190" y="153" type="line"/>
      <point x="190" y="0" type="line"/>
      <point x="838" y="0" type="line"/>
      <point x="838" y="153" type="line"/>
      <point x="559" y="153" type="line"/>
      <point x="636" y="90" type="line"/>
      <point x="636" y="1362" type="line"/>
      <point x="560" y="1303" type="line"/>
      <point x="838" y="1303" type="line"/>
      <point x="838" y="1456" type="line"/>
    </contour>
    <contour>
      <point x="525" y="0" type="move" name="bot"/>
    </contour>
    <contour>
      <point x="526" y="0" type="move" name="ogonek"/>
    </contour>
    <contour>
      <point x="525" y="1456" type="move" name="top"/>
    </contour>
  </outline>
</glyph>
<glyph name="Q" format="1">
  <advance width="1533"/>
  <unicode hex="0051"/>
  <outline>
    <contour>
      <point x="744" y="62" type="line"/>
      <point x="1121" y="-508" type="line"/>
      <point x="1283" y="-398" type="line"/>
      <point x="955" y="94" type="line"/>
    </contour>
    <component base="O"/>
  </outline>
</glyph>
<glyph name="S" format="1">
  <advance width="1221"/>
  <unicode hex="0053"/>
  <outline>
    <contour>
      <point x="592" y="-17" type="curve" smooth="yes"/>
      <point x="852" y="-17"/>
      <point x="1096" y="100"/>
      <point x="1098" y="393" type="curve" smooth="yes"/>
      <point x="1100" y="658"/>
      <point x="966" y="732"/>
      <point x="748" y="818" type="curve" smooth="yes"/>
      <point x="488" y="922" type="line" smooth="yes"/>
      <point x="392" y="965"/>
      <point x="358" y="1003"/>
      <point x="358" y="1097" type="curve" smooth="yes"/>
      <point x="358" y="1230"/>
      <point x="480" y="1282"/>
      <point x="623" y="1282" type="curve" smooth="yes"/>
      <point x="737" y="1282"/>
      <point x="842" y="1230"/>
      <point x="897" y="1145" type="curve"/>
      <point x="908" y="1145" type="line"/>
      <point x="1070" y="1254" type="line"/>
      <point x="995" y="1377"/>
      <point x="836" y="1480"/>
      <point x="610" y="1480" type="curve" smooth="yes"/>
      <point x="363" y="1480"/>
      <point x="122" y="1374"/>
      <point x="122" y="1083" type="curve" smooth="yes"/>
      <point x="122" y="849"/>
      <point x="236" y="772"/>
      <point x="415" y="698" type="curve" smooth="yes"/>
      <point x="662" y="600" type="line" smooth="yes"/>
      <point x="813" y="535"/>
      <point x="857" y="497"/>
      <point x="857" y="387" type="curve" smooth="yes"/>
      <point x="857" y="242"/>
      <point x="740" y="185"/>
      <point x="591" y="185" type="curve" smooth="yes"/>
      <point x="468" y="185"/>
      <point x="356" y="248"/>
      <point x="282" y="323" type="curve"/>
      <point x="257" y="323" type="line"/>
      <point x="108" y="202" type="line"/>
      <point x="198" y="94"/>
      <point x="383" y="-17"/>
    </contour>
    <contour>
      <point x="610.5" y="0" type="move" name="bot"/>
    </contour>
    <contour>
      <point x="610.5" y="1456" type="move" name="top"/>
    </contour>
  </outline>
</glyph>
<glyph name="V" format="1">
  <advance width="1221"/>
  <unicode hex="0056"/>
  <outline>
    <contour>
      <point x="465" y="0" type="line"/>
      <point x="733" y="0" type="line"/>
      <point x="1242" y="1456" type="line"/>
      <point x="987" y="1456" type="line"/>
      <point x="708" y="602" type="line"/>
      <point x="574" y="177" type="line"/>
      <point x="642" y="177" type="line"/>
      <point x="513" y="600" type="line"/>
      <point x="232" y="1456" type="line"/>
      <point x="-19" y="1456" type="line"/>
    </contour>
  </outline>
</glyph>
<glyph name="bracketleft" format="1">
  <advance width="823"/>
  <unicode hex="005B"/>
  <outline>
    <contour>
      <point x="222" y="-252" type="line"/>
      <point x="677" y="-252" type="line"/>
      <point x="677" y="-86" type="line"/>
      <point x="436" y="-86" type="line"/>
      <point x="436" y="1314" type="line"/>
      <point x="677" y="1314" type="line"/>
      <point x="677" y="1480" type="line"/>
      <point x="222" y="1480" type="line"/>
    </contour>
  </outline>
</glyph>
<glyph name="c" format="1">
  <advance width="1079"/>
  <unicode hex="0063"/>
  <outline>
    <contour>
      <point x="880" y="303" type="line"/>
      <point x="833" y="228"/>
      <point x="759" y="155"/>
      <point x="625" y="156" type="curve" smooth="yes"/>
      <point x="424" y="157"/>
      <point x="319" y="299"/>
      <point x="319" y="541" type="curve" smooth="yes"/>
      <point x="319" y="783"/>
      <point x="424" y="926"/>
      <point x="625" y="927" type="curve" smooth="yes"/>
      <point x="759" y="928"/>
      <point x="833" y="855"/>
      <point x="880" y="780" type="curve"/>
      <point x="894" y="780" type="line"/>
      <point x="1019" y="867" type="line"/>
      <point x="960" y="972"/>
      <point x="859" y="1101"/>
      <point x="611" y="1101" type="curve" smooth="yes"/>
      <point x="307" y="1101"/>
      <point x="93" y="890"/>
      <point x="93" y="541" type="curve" smooth="yes"/>
      <point x="93" y="192"/>
      <point x="307" y="-18"/>
      <point x="611" y="-18" type="curve" smooth="yes"/>
      <point x="859" y="-18"/>
      <point x="960" y="111"/>
      <point x="1019" y="216" type="curve"/>
      <point x="894" y="303" type="line"/>
    </contour>
    <contour>
      <point x="605" y="0" type="move" name="bot"/>
    </contour>
    <contour>
      <point x="587" y="1082" type="move" name="top"/>
    </contour>
  </outline>
</glyph>
<glyph name="d" format="1">
  <advance width="1192"/>
  <unicode hex="0064"/>
  <outline>
    <contour>
      <point x="819" y="1540" type="line"/>
      <point x="819" y="1135" type="line"/>
      <point x="830" y="881" type="line"/>
      <point x="862" y="881" type="line"/>
      <point x="862" y="936"/>
      <point x="800" y="1092"/>
      <point x="573" y="1101" type="curve" smooth="yes"/>
      <point x="307" y="1111"/>
      <point x="93" y="929"/>
      <point x="93" y="551" type="curve" smooth="yes"/>
      <point x="93" y="146"/>
      <point x="313" y="-28"/>
      <point x="576" y="-18" type="curve" smooth="yes"/>
      <point x="808" y="-9"/>
      <point x="888" y="148"/>
      <point x="890" y="216" type="curve"/>
      <point x="824" y="216" type="line"/>
      <point x="857" y="0" type="line"/>
      <point x="1043" y="0" type="line"/>
      <point x="1043" y="1560" type="line"/>
    </contour>
    <contour>
      <point x="580" y="156" type="curve" smooth="yes"/>
      <point x="410" y="156"/>
      <point x="319" y="286"/>
      <point x="319" y="547" type="curve" smooth="yes"/>
      <point x="319" y="818"/>
      <point x="428" y="927"/>
      <point x="582" y="927" type="curve" smooth="yes"/>
      <point x="696" y="927"/>
      <point x="783" y="876"/>
      <point x="826" y="807" type="curve"/>
      <point x="826" y="253" type="line"/>
      <point x="800" y="214"/>
      <point x="704" y="156"/>
    </contour>
    <contour>
      <point x="956" y="1082" type="move" name="caron.alt"/>
    </contour>
    <contour>
      <point x="543" y="1082" type="move" name="top"/>
    </contour>
    <contour>
      <point x="906" y="1305" type="move" name="mid"/>
    </contour>
    <contour>
      <point x="557" y="0" type="move" name="bot"/>
    </contour>
  </outline>
</glyph>
<glyph name="k" format="1">
  <advance width="1079"/>
  <unicode hex="006B"/>
  <outline>
    <contour>
      <point x="131" y="0" type="line"/>
      <point x="353" y="0" type="line"/>
      <point x="353" y="449" type="line"/>
      <point x="299" y="333" type="line"/>
      <point x="506" y="528" type="line"/>
      <point x="434" y="528" type="line"/>
      <point x="826" y="0" type="line"/>
      <point x="1071" y="0" type="line"/>
      <point x="1071" y="29" type="line"/>
      <point x="592" y="641" type="line"/>
      <point x="582" y="544" type="line"/>
      <point x="1047" y="1060" type="line"/>
      <point x="1047" y="1082" type="line"/>
      <point x="789" y="1082" type="line"/>
      <point x="305" y="538" type="line"/>
      <point x="346" y="538" type="line"/>
      <point x="353" y="800" type="line"/>
      <point x="353" y="1560" type="line"/>
      <point x="131" y="1540" type="line"/>
    </contour>
    <contour>
      <point x="581" y="-18" type="move" name="bot"/>
    </contour>
    <contour>
      <point x="614" y="1456" type="move" name="top"/>
    </contour>
  </outline>
</glyph>
<glyph name="m" format="1">
  <advance width="1760"/>
  <unicode hex="006D"/>
  <outline>
    <contour>
      <point x="118" y="0" type="line"/>
      <point x="339" y="0" type="line"/>
      <point x="339" y="572" type="line" smooth="yes"/>
      <point x="339" y="782"/>
      <point x="437" y="927"/>
      <point x="589" y="927" type="curve" smooth="yes"/>
      <point x="722" y="927"/>
      <point x="770" y="828"/>
      <point x="770" y="619" type="curve" smooth="yes"/>
      <point x="770" y="0" type="line"/>
      <point x="991" y="0" type="line"/>
      <point x="991" y="573" type="line" smooth="yes"/>
      <point x="991" y="586.319"/>
      <point x="991.495" y="599.378"/>
      <point x="992.459" y="612.156" type="curve" smooth="yes"/>
      <point x="1006.62" y="799.892"/>
      <point x="1121.86" y="927"/>
      <point x="1252" y="927" type="curve" smooth="yes"/>
      <point x="1400" y="927"/>
      <point x="1422" y="797"/>
      <point x="1422" y="617" type="curve" smooth="yes"/>
      <point x="1422" y="0" type="line"/>
      <point x="1643" y="0" type="line"/>
      <point x="1643" y="692" type="line" smooth="yes"/>
      <point x="1643" y="958"/>
      <point x="1529" y="1101"/>
      <point x="1298" y="1101" type="curve" smooth="yes"/>
      <point x="1145" y="1101"/>
      <point x="988" y="1020"/>
      <point x="921" y="816" type="curve"/>
      <point x="957" y="816" type="line"/>
      <point x="923" y="992"/>
      <point x="816" y="1101"/>
      <point x="643" y="1101" type="curve" smooth="yes"/>
      <point x="465" y="1101"/>
      <point x="339" y="987"/>
      <point x="293" y="804" type="curve"/>
      <point x="335" y="804" type="line"/>
      <point x="300" y="1082" type="line"/>
      <point x="118" y="1082" type="line"/>
    </contour>
    <contour>
      <point x="880" y="0" type="move" name="bot"/>
    </contour>
    <contour>
      <point x="880" y="1082" type="move" name="top"/>
    </contour>
  </outline>
</glyph>
<glyph name="r" format="1">
  <advance width="795"/>
  <unicode hex="0072"/>
  <outline>
    <contour>
      <point x="156" y="0" type="line"/>
      <point x="380" y="0" type="line"/>
      <point x="380" y="598" type="line" smooth="yes"/>
      <point x="380" y="816"/>
      <point x="488" y="914"/>
      <point x="709" y="914" type="curve" smooth="yes"/>
      <point x="743" y="914" type="line"/>
      <point x="754" y="1083" type="line"/>
      <point x="729" y="1088"/>
      <point x="695" y="1089"/>
      <point x="669" y="1089" type="curve" smooth="yes"/>
      <point x="541" y="1089"/>
      <point x="410" y="1022"/>
      <point x="337" y="764" type="curve"/>
      <point x="375" y="764" type="line"/>
      <point x="341" y="1082" type="line"/>
      <point x="156" y="1082" type="line"/>
    </contour>
    <contour>
      <point x="397.5" y="0" type="move" name="bot"/>
    </contour>
    <contour>
      <point x="397.5" y="1082" type="move" name="top"/>
    </contour>
  </outline>
</glyph>
<glyph name="v" format="1">
  <advance width="1079"/>
  <unicode hex="0076"/>
  <outline>
    <contour>
      <point x="429" y="0" type="line"/>
      <point x="653" y="0" type="line"/>
      <point x="1023" y="1082" type="line"/>
      <point x="794" y="1082" type="line"/>
      <point x="618" y="485" type="line"/>
      <point x="523" y="171" type="line"/>
      <point x="567" y="171" type="line"/>
      <point x="476" y="485" type="line"/>
      <point x="276" y="1082" type="line"/>
      <point x="42" y="1082" type="line"/>
    </contour>
  </outline>
</glyph>
<glyph name="brokenbar" format="1">
  <advance width="710"/>
  <unicode hex="00A6"/>
  <outline>
    <contour>
      <point x="260" y="420" type="line"/>
      <point x="260" y="-303" type="line"/>
      <point x="437" y="-303" type="line"/>
      <point x="437" y="420" type="line"/>
    </contour>
    <contour>
      <point x="260" y="1509" type="line"/>
      <point x="260" y="788" type="line"/>
      <point x="437" y="788" type="line"/>
      <point x="437" y="1509" type="line"/>
    </contour>
  </outline>
</glyph>
<glyph name="dieresis" format="1">
  <advance width="995"/>
  <unicode hex="00A8"/>
  <outline>
    <contour>
      <point x="279" y="1255" type="curve" smooth="yes"/>
      <point x="362" y="1255"/>
      <point x="415" y="1321"/>
      <point x="415" y="1394" type="curve" smooth="yes"/>
      <point x="415" y="1468"/>
      <point x="362" y="1535"/>
      <point x="279" y="1535" type="curve" smooth="yes"/>
      <point x="195" y="1535"/>
      <point x="141" y="1468"/>
      <point x="141" y="1394" type="curve" smooth="yes"/>
      <point x="141" y="1320"/>
      <point x="196" y="1255"/>
    </contour>
    <contour>
      <point x="724" y="1255" type="curve" smooth="yes"/>
      <point x="807" y="1255"/>
      <point x="860" y="1321"/>
      <point x="860" y="1394" type="curve" smooth="yes"/>
      <point x="860" y="1468"/>
      <point x="807" y="1535"/>
      <point x="724" y="1535" type="curve" smooth="yes"/>
      <point x="640" y="1535"/>
      <point x="586" y="1468"/>
      <point x="586" y="1394" type="curve" smooth="yes"/>
      <point x="586" y="1320"/>
      <point x="641" y="1255"/>
    </contour>
    <contour>
      <point x="497.5" y="1082" type="move" name="_top"/>
    </contour>
  </outline>
</glyph>
<glyph name="twosuperior" format="1">
  <advance width="852"/>
  <unicode hex="00B2"/>
  <outline>
    <contour>
      <point x="161" y="597" type="line"/>
      <point x="702" y="597" type="line"/>
      <point x="715" y="735" type="line"/>
      <point x="390" y="735" type="line"/>
      <point x="453.295" y="791.149"/>
      <point x="511.611" y="841.16"/>
      <point x="561.006" y="890.275" type="curve" smooth="yes"/>
      <point x="656.765" y="985.49"/>
      <point x="719" y="1077.34"/>
      <point x="719" y="1204" type="curve" smooth="yes"/>
      <point x="719" y="1379"/>
      <point x="580" y="1476"/>
      <point x="436" y="1476" type="curve" smooth="yes"/>
      <point x="315" y="1476"/>
      <point x="204" y="1426"/>
      <point x="146" y="1333" type="curve"/>
      <point x="223" y="1226" type="line"/>
      <point x="273" y="1295"/>
      <point x="352" y="1328"/>
      <point x="425" y="1328" type="curve" smooth="yes"/>
      <point x="491" y="1328"/>
      <point x="556" y="1283"/>
      <point x="556" y="1197" type="curve" smooth="yes"/>
      <point x="556" y="1144.9"/>
      <point x="505.838" y="1073.33"/>
      <point x="440.623" y="1001.1" type="curve" smooth="yes"/>
      <point x="340.608" y="890.325"/>
      <point x="205.187" y="778.003"/>
      <point x="161" y="732" type="curve"/>
    </contour>
  </outline>
</glyph>
<glyph name="acute" format="1">
  <advance width="738"/>
  <unicode hex="00B4"/>
  <outline>
    <contour>
      <point x="283" y="1216" type="line"/>
      <point x="421" y="1216" type="line"/>
      <point x="730" y="1627" type="line"/>
      <point x="461" y="1627" type="line"/>
    </contour>
    <contour>
      <point x="369" y="1082" type="move" name="_top"/>
    </contour>
  </outline>
</glyph>
<glyph name="paragraph" format="1">
  <advance width="1164"/>
  <unicode hex="00B6"/>
  <outline>
    <contour>
      <point x="563" y="1456" type="line" smooth="yes"/>
      <point x="262" y="1456"/>
      <point x="100" y="1337"/>
      <point x="100" y="1118" type="curve" smooth="yes"/>
      <point x="100" y="932"/>
      <point x="224" y="791"/>
      <point x="459" y="791" type="curve"/>
      <point x="459" y="-120" type="line"/>
      <point x="611" y="-120" type="line"/>
      <point x="611" y="1299" type="line"/>
      <point x="779" y="1299" type="line"/>
      <point x="779" y="-120" type="line"/>
      <point x="932" y="-120" type="line"/>
      <point x="932" y="1299" type="line"/>
      <point x="1009" y="1299" type="line"/>
      <point x="1009" y="1456" type="line"/>
    </contour>
  </outline>
</glyph>
<glyph name="onehalf" format="1">
  <advance width="1618"/>
  <unicode hex="00BD"/>
  <outline>
    <contour>
      <point x="38" y="597" type="line"/>
      <point x="492" y="597" type="line"/>
      <point x="492" y="741" type="line"/>
      <point x="355" y="741" type="line"/>
      <point x="355" y="1493" type="line"/>
      <point x="220" y="1493" type="line"/>
      <point x="186" y="1467"/>
      <point x="66" y="1403"/>
      <point x="24" y="1383" type="curve"/>
      <point x="24" y="1238" type="line"/>
      <point x="39" y="1243"/>
      <point x="143" y="1292"/>
      <point x="180" y="1313" type="curve"/>
      <point x="180" y="741" type="line"/>
      <point x="38" y="741" type="line"/>
    </contour>
    <contour>
      <point x="1006" y="0" type="line"/>
      <point x="1547" y="0" type="line"/>
      <point x="1560" y="138" type="line"/>
      <point x="1235" y="138" type="line"/>
      <point x="1293.21" y="189.637"/>
      <point x="1347.21" y="236.083"/>
      <point x="1393.93" y="281.415" type="curve" smooth="yes"/>
      <point x="1496.5" y="380.936"/>
      <point x="1564" y="475.087"/>
      <point x="1564" y="607" type="curve" smooth="yes"/>
      <point x="1564" y="782"/>
      <point x="1425" y="879"/>
      <point x="1281" y="879" type="curve" smooth="yes"/>
      <point x="1160" y="879"/>
      <point x="1049" y="829"/>
      <point x="991" y="736" type="curve"/>
      <point x="1068" y="629" type="line"/>
      <point x="1118" y="698"/>
      <point x="1197" y="731"/>
      <point x="1270" y="731" type="curve" smooth="yes"/>
      <point x="1336" y="731"/>
      <point x="1401" y="686"/>
      <point x="1401" y="600" type="curve" smooth="yes"/>
      <point x="1401" y="545.214"/>
      <point x="1345.53" y="468.895"/>
      <point x="1275.42" y="392.921" type="curve" smooth="yes"/>
      <point x="1176.6" y="285.846"/>
      <point x="1048.7" y="179.456"/>
      <point x="1006" y="135" type="curve"/>
    </contour>
    <contour>
      <point x="246" y="0" type="line"/>
      <point x="427" y="0" type="line"/>
      <point x="1380" y="1493" type="line"/>
      <point x="1204" y="1493" type="line"/>
    </contour>
  </outline>
</glyph>
<glyph name="threequarters" format="1">
  <advance width="1590"/>
  <unicode hex="00BE"/>
  <outline>
    <contour>
      <point x="271" y="584" type="curve" smooth="yes"/>
      <point x="436" y="584"/>
      <point x="585" y="670"/>
      <point x="585" y="852" type="curve" smooth="yes"/>
      <point x="585" y="948"/>
      <point x="529" y="1035"/>
      <point x="426" y="1060" type="curve"/>
      <point x="531" y="1082"/>
      <point x="565" y="1177"/>
      <point x="566" y="1252" type="curve"/>
      <point x="566" y="1409"/>
      <point x="438" y="1475"/>
      <point x="295" y="1475" type="curve" smooth="yes"/>
      <point x="198" y="1475"/>
      <point x="95" y="1445"/>
      <point x="18" y="1392" type="curve"/>
      <point x="73" y="1283" type="line"/>
      <point x="143" y="1323"/>
      <point x="215" y="1343"/>
      <point x="274" y="1343" type="curve" smooth="yes"/>
      <point x="354" y="1343"/>
      <point x="411" y="1307"/>
      <point x="411" y="1231" type="curve" smooth="yes"/>
      <point x="411" y="1161"/>
      <point x="373" y="1118"/>
      <point x="259" y="1118" type="curve" smooth="yes"/>
      <point x="152" y="1118" type="line"/>
      <point x="152" y="988" type="line"/>
      <point x="259" y="989" type="line" smooth="yes"/>
      <point x="379" y="990"/>
      <point x="431" y="940"/>
      <point x="431" y="854" type="curve" smooth="yes"/>
      <point x="431" y="757"/>
      <point x="357" y="717"/>
      <point x="268" y="717" type="curve" smooth="yes"/>
      <point x="201" y="717"/>
      <point x="125" y="741"/>
      <point x="68" y="780" type="curve"/>
      <point x="14" y="657" type="line"/>
      <point x="90" y="609"/>
      <point x="183" y="584"/>
    </contour>
    <contour>
      <point x="1298" y="0" type="line"/>
      <point x="1450" y="0" type="line"/>
      <point x="1450" y="184" type="line"/>
      <point x="1558" y="184" type="line"/>
      <point x="1563" y="312" type="line"/>
      <point x="1450" y="312" type="line"/>
      <point x="1450" y="867" type="line"/>
      <point x="1288" y="867" type="line"/>
      <point x="914" y="309" type="line"/>
      <point x="914" y="184" type="line"/>
      <point x="1298" y="184" type="line"/>
    </contour>
    <contour>
      <point x="276" y="0" type="line"/>
      <point x="457" y="0" type="line"/>
      <point x="1410" y="1492" type="line"/>
      <point x="1234" y="1492" type="line"/>
    </contour>
    <contour>
      <point x="1081" y="312" type="line"/>
      <point x="1298" y="665" type="line"/>
      <point x="1298" y="312" type="line"/>
    </contour>
  </outline>
</glyph>
<glyph name="ae" format="1">
  <advance width="1590"/>
  <unicode hex="00E6"/>
  <outline>
    <contour>
      <point x="1221" y="-18" type="curve" smooth="yes"/>
      <point x="1379" y="-18"/>
      <point x="1475" y="29"/>
      <point x="1530" y="66" type="curve"/>
      <point x="1496" y="223" type="line"/>
      <point x="1430" y="188"/>
      <point x="1341" y="155"/>
      <point x="1225" y="155" type="curve" smooth="yes"/>
      <point x="1043" y="156"/>
      <point x="907" y="242"/>
      <point x="897" y="480" type="curve"/>
      <point x="1434" y="480"/>
      <point x="1558" y="606"/>
      <point x="1558" y="783" type="curve" smooth="yes"/>
      <point x="1558" y="947"/>
      <point x="1468" y="1101"/>
      <point x="1182" y="1101" type="curve" smooth="yes"/>
      <point x="1028" y="1101"/>
      <point x="879" y="1020"/>
      <point x="819" y="900" type="curve"/>
      <point x="760" y="1029"/>
      <point x="620" y="1101"/>
      <point x="455" y="1101" type="curve" smooth="yes"/>
      <point x="301" y="1101"/>
      <point x="172" y="1063"/>
      <point x="84" y="1020" type="curve"/>
      <point x="133" y="857" type="line"/>
      <point x="208" y="892"/>
      <point x="315" y="925"/>
      <point x="432" y="925" type="curve"/>
      <point x="576" y="925"/>
      <point x="682" y="873"/>
      <point x="682" y="714" type="curve" smooth="yes"/>
      <point x="682" y="627" type="line"/>
      <point x="552" y="627" type="line" smooth="yes"/>
      <point x="228" y="627"/>
      <point x="35" y="562"/>
      <point x="35" y="320" type="curve" smooth="yes"/>
      <point x="35" y="114"/>
      <point x="170" y="-20"/>
      <point x="365" y="-20" type="curve" smooth="yes"/>
      <point x="543" y="-20"/>
      <point x="724" y="57"/>
      <point x="813" y="148" type="curve"/>
      <point x="891" y="41"/>
      <point x="1048" y="-18"/>
    </contour>
    <contour>
      <point x="396" y="145" type="curve" smooth="yes"/>
      <point x="299" y="145"/>
      <point x="242" y="198"/>
      <point x="242" y="312" type="curve" smooth="yes"/>
      <point x="242" y="425"/>
      <point x="314" y="476"/>
      <point x="545" y="476" type="curve" smooth="yes"/>
      <point x="686" y="476" type="line"/>
      <point x="689" y="402"/>
      <point x="710" y="323"/>
      <point x="728" y="278" type="curve"/>
      <point x="643" y="201"/>
      <point x="502" y="145"/>
    </contour>
    <contour>
      <point x="899" y="627" type="curve"/>
      <point x="922" y="875"/>
      <point x="1058" y="944"/>
      <point x="1199" y="944" type="curve" smooth="yes"/>
      <point x="1324" y="944"/>
      <point x="1382" y="897"/>
      <point x="1382" y="792" type="curve" smooth="yes"/>
      <point x="1382" y="677"/>
      <point x="1267" y="627"/>
    </contour>
    <contour>
      <point x="818" y="1082" type="move" name="top"/>
    </contour>
  </outline>
</glyph>
<glyph name="eth" format="1">
  <advance width="1192"/>
  <unicode hex="00F0"/>
  <outline>
    <contour>
      <point x="193" y="1536" type="line"/>
      <point x="401" y="1331" type="line"/>
      <point x="207" y="1252" type="line"/>
      <point x="265" y="1099" type="line"/>
      <point x="513" y="1198" type="line"/>
      <point x="613" y="1098"/>
      <point x="714" y="976"/>
      <point x="761" y="903" type="curve"/>
      <point x="714" y="929"/>
      <point x="650" y="962"/>
      <point x="563" y="962" type="curve" smooth="yes"/>
      <point x="277" y="962"/>
      <point x="80" y="770"/>
      <point x="80" y="482" type="curve" smooth="yes"/>
      <point x="80" y="199"/>
      <point x="277" y="-22"/>
      <point x="596" y="-22" type="curve" smooth="yes"/>
      <point x="921" y="-22"/>
      <point x="1108" y="177"/>
      <point x="1108" y="478" type="curve" smooth="yes"/>
      <point x="1107" y="621"/>
      <point x="1070" y="756"/>
      <point x="1013" y="859" type="curve"/>
      <point x="940" y="990"/>
      <point x="836" y="1112"/>
      <point x="691" y="1275" type="curve"/>
      <point x="915" y="1364" type="line"/>
      <point x="855" y="1518" type="line"/>
      <point x="580" y="1407" type="line"/>
      <point x="452" y="1536" type="line"/>
    </contour>
    <contour>
      <point x="907" y="484" type="curve" smooth="yes"/>
      <point x="907" y="286"/>
      <point x="800" y="156"/>
      <point x="602" y="156" type="curve" smooth="yes"/>
      <point x="400" y="156"/>
      <point x="293" y="305"/>
      <point x="293" y="483" type="curve" smooth="yes"/>
      <point x="293" y="671"/>
      <point x="402" y="800"/>
      <point x="596" y="800" type="curve" smooth="yes"/>
      <point x="795" y="800"/>
      <point x="907" y="659"/>
    </contour>
  </outline>
</glyph>
<glyph name="kgreenlandic" format="1">
  <advance width="1136"/>
  <unicode hex="0138"/>
  <outline>
    <contour>
      <point x="131" y="0" type="line"/>
      <point x="353" y="0" type="line"/>
      <point x="353" y="439" type="line"/>
      <point x="299" y="324" type="line"/>
      <point x="495" y="512" type="line"/>
      <point x="423" y="512" type="line"/>
      <point x="823" y="0" type="line"/>
      <point x="1074" y="0" type="line"/>
      <point x="1074" y="15" type="line"/>
      <point x="581" y="638" type="line"/>
      <point x="571" y="533" type="line"/>
      <point x="1046" y="1061" type="line"/>
      <point x="1046" y="1082" type="line"/>
      <point x="789" y="1082" type="line"/>
      <point x="305" y="534" type="line"/>
      <point x="346" y="534" type="line"/>
      <point x="353" y="801" type="line"/>
      <point x="353" y="1082" type="line"/>
      <point x="131" y="1082" type="line"/>
    </contour>
  </outline>
</glyph>
<glyph name="Eng" format="1">
  <advance width="1505"/>
  <unicode hex="014A"/>
  <outline>
    <contour>
      <point x="1079" y="827" type="line"/>
      <point x="1079" y="-30" type="line" smooth="yes"/>
      <point x="1079" y="-258"/>
      <point x="1045" y="-325"/>
      <point x="820" y="-325" type="curve"/>
      <point x="842" y="-525" type="line"/>
      <point x="1204" y="-525"/>
      <point x="1307" y="-346"/>
      <point x="1307" y="-31" type="curve" smooth="yes"/>
      <point x="1307" y="827" type="line"/>
    </contour>
    <component base="N"/>
  </outline>
</glyph>
<glyph name="apostrophemod" format="1">
  <advance width="624"/>
  <unicode hex="02BC"/>
  <outline>
    <contour>
      <point x="139" y="1163" type="line"/>
      <point x="312" y="1163" type="line"/>
      <point x="418" y="1663" type="line"/>
      <point x="184" y="1663" type="line"/>
    </contour>
    <contour>
      <point x="443" y="928" type="move" name="_caron.alt"/>
    </contour>
  </outline>
</glyph>
<glyph name="hungarumlaut" format="1">
  <advance width="937"/>
  <unicode hex="02DD"/>
  <outline>
    <contour>
      <point x="243" y="1226" type="line"/>
      <point x="396" y="1226" type="line"/>
      <point x="657" y="1637" type="line"/>
      <point x="440" y="1637" type="line"/>
    </contour>
    <contour>
      <point x="534" y="1226" type="line"/>
      <point x="688" y="1226" type="line"/>
      <point x="990" y="1637" type="line"/>
      <point x="758" y="1637" type="line"/>
    </contour>
    <contour>
      <point x="468.5" y="1082" type="move" name="_top"/>
    </contour>
  </outline>
</glyph>
<glyph name="commaaccent" format="1">
  <advance width="624"/>
  <unicode hex="0326"/>
  <outline>
    <contour>
      <point x="165" y="-556" type="line"/>
      <point x="312" y="-556" type="line"/>
      <point x="433" y="-115" type="line"/>
      <point x="218" y="-115" type="line"/>
    </contour>
    <contour>
      <point x="322" y="0" type="move" name="_bot"/>
    </contour>
  </outline>
</glyph>
<glyph name="quoteleft" format="1">
  <advance width="738"/>
  <unicode hex="2018"/>
  <outline>
    <contour>
      <point x="398" y="960" type="line"/>
      <point x="471" y="1471" type="line"/>
      <point x="317" y="1471" type="line"/>
      <point x="192" y="960" type="line"/>
    </contour>
  </outline>
</glyph>
<glyph name="quotedblleft" format="1">
  <advance width="908"/>
  <unicode hex="201C"/>
  <outline>
    <contour>
      <point x="112" y="960" type="line"/>
      <point x="332" y="960" type="line"/>
      <point x="426" y="1476" type="line"/>
      <point x="274" y="1476" type="line"/>
    </contour>
    <contour>
      <point x="443" y="961" type="line"/>
      <point x="660" y="961" type="line"/>
      <point x="749" y="1476" type="line"/>
      <point x="592" y="1476" type="line"/>
    </contour>
  </outline>
</glyph>
<glyph name="quotedblbase" format="1">
  <advance width="880"/>
  <unicode hex="201E"/>
  <outline>
    <contour>
      <point x="118" y="-250" type="line"/>
      <point x="266" y="-250" type="line"/>
      <point x="413" y="239" type="line"/>
      <point x="217" y="239" type="line"/>
    </contour>
    <contour>
      <point x="422" y="-250" type="line"/>
      <point x="572" y="-250" type="line"/>
      <point x="720" y="239" type="line"/>
      <point x="523" y="239" type="line"/>
    </contour>
  </outline>
</glyph>
<glyph name="foursuperior" format="1">
  <advance width="852"/>
  <unicode hex="2074"/>
  <outline>
    <contour>
      <point x="487" y="589" type="line"/>
      <point x="639" y="589" type="line"/>
      <point x="639" y="773" type="line"/>
      <point x="747" y="773" type="line"/>
      <point x="752" y="901" type="line"/>
      <point x="639" y="901" type="line"/>
      <point x="639" y="1456" type="line"/>
      <point x="477" y="1456" type="line"/>
      <point x="103" y="898" type="line"/>
      <point x="103" y="773" type="line"/>
      <point x="487" y="773" type="line"/>
    </contour>
    <contour>
      <point x="270" y="901" type="line"/>
      <point x="487" y="1254" type="line"/>
      <point x="487" y="901" type="line"/>
    </contour>
  </outline>
</glyph>
<glyph name="estimated" format="1">
  <advance width="1192"/>
  <unicode hex="212E"/>
  <outline>
    <contour>
      <point x="86" y="534" type="curve" smooth="yes"/>
      <point x="86" y="218"/>
      <point x="272" y="-20"/>
      <point x="649" y="-20" type="curve" smooth="yes"/>
      <point x="854" y="-20"/>
      <point x="987" y="68"/>
      <point x="1086" y="186" type="curve"/>
      <point x="1035" y="236" type="line"/>
      <point x="938" y="132"/>
      <point x="828" y="53"/>
      <point x="649" y="53" type="curve" smooth="yes"/>
      <point x="422" y="53"/>
      <point x="302" y="241"/>
      <point x="301" y="514" type="curve"/>
      <point x="1094" y="514" type="line"/>
      <point x="1094" y="857"/>
      <point x="948" y="1086"/>
      <point x="632" y="1086" type="curve" smooth="yes"/>
      <point x="313" y="1086"/>
      <point x="86" y="850"/>
    </contour>
    <contour>
      <point x="983" y="594" type="curve"/>
      <point x="304" y="594" type="line"/>
      <point x="318" y="852"/>
      <point x="467" y="1026"/>
      <point x="638" y="1026" type="curve" smooth="yes"/>
      <point x="845" y="1026"/>
      <point x="983" y="826"/>
    </contour>
  </outline>
</glyph>
<glyph name="summation" format="1">
  <advance width="1079"/>
  <unicode hex="2211"/>
  <outline>
    <contour>
      <point x="14" y="1510" type="line"/>
      <point x="14" y="1388" type="line"/>
      <point x="584" y="594" type="line"/>
      <point x="-6" y="-218" type="line"/>
      <point x="-6" y="-335" type="line"/>
      <point x="1102" y="-335" type="line"/>
      <point x="1102" y="-148" type="line"/>
      <point x="246" y="-148" type="line"/>
      <point x="816" y="601" type="line"/>
      <point x="270" y="1330" type="line"/>
      <point x="1062" y="1330" type="line"/>
      <point x="1062" y="1510" type="line"/>
    </contour>
  </outline>
</glyph>
<glyph name="approxequal" format="1">
  <advance width="1221"/>
  <unicode hex="2248"/>
  <outline>
    <contour>
      <point x="830" y="854" type="curve" smooth="yes"/>
      <point x="772" y="854"/>
      <point x="710" y="886"/>
      <point x="629" y="930" type="curve" smooth="yes"/>
      <point x="548" y="973"/>
      <point x="461" y="1012"/>
      <point x="372" y="1012" type="curve" smooth="yes"/>
      <point x="218" y="1012"/>
      <point x="125" y="911"/>
      <point x="87" y="765" type="curve"/>
      <point x="189" y="682" type="line"/>
      <point x="222" y="776"/>
      <point x="276" y="844"/>
      <point x="369" y="844" type="curve" smooth="yes"/>
      <point x="432" y="844"/>
      <point x="487" y="817"/>
      <point x="552" y="778" type="curve"/>
      <point x="656" y="720"/>
      <point x="732" y="687"/>
      <point x="820" y="687" type="curve" smooth="yes"/>
      <point x="981" y="687"/>
      <point x="1081" y="795"/>
      <point x="1119" y="933" type="curve"/>
      <point x="1023" y="1012" type="line"/>
      <point x="967" y="906"/>
      <point x="910" y="854"/>
    </contour>
    <contour>
      <point x="829" y="394" type="curve" smooth="yes"/>
      <point x="774" y="394"/>
      <point x="715" y="420"/>
      <point x="629" y="467" type="curve" smooth="yes"/>
      <point x="544" y="513"/>
      <point x="460" y="550"/>
      <point x="373" y="550" type="curve" smooth="yes"/>
      <point x="219" y="550"/>
      <point x="125" y="449"/>
      <point x="86" y="304" type="curve"/>
      <point x="189" y="223" type="line"/>
      <point x="221" y="317"/>
      <point x="274" y="383"/>
      <point x="368" y="383" type="curve" smooth="yes"/>
      <point x="431" y="383"/>
      <point x="486" y="357"/>
      <point x="551" y="318" type="curve"/>
      <point x="655" y="259"/>
      <point x="730" y="227"/>
      <point x="820" y="227" type="curve" smooth="yes"/>
      <point x="979" y="227"/>
      <point x="1080" y="333"/>
      <point x="1118" y="471" type="curve"/>
      <point x="1023" y="550" type="line"/>
      <point x="965" y="445"/>
      <point x="909" y="394"/>
    </contour>
  </outline>
</glyph>
<glyph name="lessequal" format="1">
  <advance width="1192"/>
  <unicode hex="2264"/>
  <outline>
    <contour>
      <point x="1041" y="282" type="line"/>
      <point x="1041" y="467" type="line"/>
      <point x="367" y="786" type="line"/>
      <point x="1041" y="1122" type="line"/>
      <point x="1041" y="1305" type="line"/>
      <point x="139" y="839" type="line"/>
      <point x="139" y="731" type="line"/>
    </contour>
    <contour>
      <point x="120" y="1" type="line"/>
      <point x="1057" y="1" type="line"/>
      <point x="1057" y="152" type="line"/>
      <point x="120" y="152" type="line"/>
    </contour>
  </outline>
</glyph>
<glyph name="caron.alt" format="1">
  <advance width="600"/>
  <outline>
    <contour>
      <point x="234" y="1060" type="line"/>
      <point x="367" y="1060" type="line"/>
      <point x="463" y="1560" type="line"/>
      <point x="279" y="1560" type="line"/>
    </contour>
    <contour>
      <point x="-5" y="1082" type="move" name="_caron.alt"/>
    </contour>
  </outline>
</glyph>
<glyph name="dotlessj" format="1">
  <advance width="593"/>
  <outline>
    <contour>
      <point x="217" y="1082" type="line"/>
      <point x="217" y="11" type="line" smooth="yes"/>
      <point x="217" y="-158"/>
      <point x="198" y="-190"/>
      <point x="41" y="-248" type="curve" smooth="yes"/>
      <point x="-37" y="-277" type="line"/>
      <point x="30" y="-441" type="line"/>
      <point x="93" y="-419" type="line" smooth="yes"/>
      <point x="373" y="-321"/>
      <point x="437" y="-290"/>
      <point x="437" y="17" type="curve" smooth="yes"/>
      <point x="437" y="1082" type="line"/>
    </contour>
    <contour>
      <point x="329" y="1082" type="move" name="top"/>
    </contour>
  </outline>
</glyph>
<glyph name="slashbar" format="1">
  <advance width="600"/>
  <outline>
    <contour>
      <point x="163" y="467" type="line"/>
      <point x="744" y="727" type="line"/>
      <point x="744" y="912" type="line"/>
      <point x="163" y="652" type="line"/>
    </contour>
    <contour>
      <point x="449" y="689" type="move" name="_mid"/>
    </contour>
  </outline>
</glyph>
